#!OML:ASF H:\Martial Arts Walks\Project 1\Capture day 1\Session 1\male.ASF
:FULLY-SPECIFIED
:DEGREES
1152
root -2.29115 13.9067 25.0574 6.3651 12.9138 0.150574
lowerback 9.70041 -3.28158 -10.0159
upperback -1.30098 -5.43702 2.34208
thorax -5.6801 -2.31478 8.89662
lowerneck 9.42088 -17.0221 -17.5078
upperneck 5.72017 -25.2325 16.8398
head 4.58578 -12.9194 6.62427
rclavicle -1.16786e-015 -2.24627e-014
rhumerus -35.082 13.8356 -74.7332
rradius 41.2622
rwrist 1.72652
rhand -12.074 -38.917
rfingers 7.12502
rthumb 13.9857 -68.4265
lclavicle -1.16786e-015 -2.24627e-014
lhumerus -27.8112 -7.3833 87.6338
lradius 40.4019
lwrist -7.77089
lhand -25.5397 22.0867
lfingers 7.12502
lthumb 0.990295 52.0641
rfemur -62.7302 -12.1715 15.4175
rtibia 71.5374
rfoot -12.437 14.5425
rtoes 0.738971
lfemur 13.805 2.2098 -13.1687
ltibia 33.9087
lfoot -33.2786 37.5795
ltoes -21.3359
1153
root -2.29257 13.9058 25.0564 6.38576 12.9001 0.207313
lowerback 9.72186 -3.28256 -10.0546
upperback -1.29468 -5.44546 2.33221
thorax -5.6813 -2.3179 8.91044
lowerneck 9.38877 -17.0479 -17.4988
upperneck 5.74111 -25.2631 16.8205
head 4.5988 -12.9323 6.6091
rclavicle -4.11236e-014 3.02153e-014
rhumerus -35.0347 13.9385 -74.7269
rradius 41.2952
rwrist 1.63467
rhand -12.718 -38.5093
rfingers 7.12502
rthumb 13.365 -68.0606
lclavicle -4.11236e-014 3.02153e-014
lhumerus -27.8052 -7.38942 87.6396
lradius 40.3606
lwrist -7.8302
lhand -25.5319 21.9965
lfingers 7.12502
lthumb 0.997815 51.9739
rfemur -62.7695 -12.181 15.3677
rtibia 71.5597
rfoot -12.4074 14.5712
rtoes 0.801433
lfemur 13.7904 2.20747 -13.2373
ltibia 33.9132
lfoot -33.2314 37.6361
ltoes -21.3256
1154
root -2.29542 13.9053 25.0547 6.37622 12.8834 0.157832
lowerback 9.73553 -3.26032 -9.96077
upperback -1.30032 -5.40598 2.33415
thorax -5.71161 -2.29913 8.85679
lowerneck 9.46648 -17.0614 -17.5125
upperneck 5.70729 -25.2946 16.8788
head 4.59147 -12.9521 6.63201
rclavicle -2.60905e-015 -5.76476e-015
rhumerus -34.9632 13.9678 -74.6917
rradius 41.2466
rwrist 1.625
rhand -12.7234 -38.5062
rfingers 7.12502
rthumb 13.3598 -68.0579
lclavicle -2.60905e-015 -5.76476e-015
lhumerus -27.8001 -7.51712 87.6785
lradius 40.2873
lwrist -7.74943
lhand -25.5349 22.0337
lfingers 7.12502
lthumb 0.994961 52.0111
rfemur -62.7793 -12.1276 15.4281
rtibia 71.5584
rfoot -12.3975 14.5656
rtoes 0.792168
lfemur 13.7668 2.23519 -13.1699
ltibia 33.9396
lfoot -33.2747 37.5844
ltoes -21.3275
1155
root -2.29536 13.9047 25.0562 6.37252 12.8943 0.232189
lowerback 9.73657 -3.26796 -9.97334
upperback -1.29262 -5.41922 2.30228
thorax -5.70302 -2.30655 8.83016
lowerneck 9.45534 -17.0871 -17.4892
upperneck 5.74847 -25.3278 16.8467
head 4.60431 -12.967 6.61286
rclavicle -1.0379e-013 1.53064e-014
rhumerus -34.8932 13.9541 -74.6544
rradius 41.2398
rwrist 1.81656
rhand -12.5039 -38.7245
rfingers 7.12502
rthumb 13.5714 -68.2621
lclavicle -1.0379e-013 1.53064e-014
lhumerus -27.7962 -7.57462 87.6879
lradius 40.2133
lwrist -7.75502
lhand -25.4985 21.9716
lfingers 7.12502
lthumb 1.03008 51.9489
rfemur -62.7644 -12.1794 15.3539
rtibia 71.5786
rfoot -12.4402 14.5757
rtoes 0.642536
lfemur 13.7803 2.21721 -13.2512
ltibia 33.9531
lfoot -33.2542 37.6283
ltoes -21.3645
1156
root -2.29856 13.9035 25.0541 6.39459 12.8644 0.262843
lowerback 9.7549 -3.26917 -10.0182
upperback -1.2925 -5.42758 2.31239
thorax -5.70669 -2.30877 8.86933
lowerneck 9.41902 -17.0887 -17.5017
upperneck 5.7838 -25.3306 16.8465
head 4.62281 -12.9663 6.60868
rclavicle -4.79568e-014 -8.34896e-015
rhumerus -34.7904 14.0307 -74.6264
rradius 41.2266
rwrist 1.8736
rhand -12.3942 -38.7107
rfingers 7.12502
rthumb 13.6771 -68.2413
lclavicle -4.79568e-014 -8.34896e-015
lhumerus -27.7425 -7.58335 87.6974
lradius 40.1009
lwrist -7.77703
lhand -25.489 22.0805
lfingers 7.12502
lthumb 1.03932 52.0577
rfemur -62.8027 -12.1288 15.3299
rtibia 71.577
rfoot -12.4411 14.5423
rtoes 0.547291
lfemur 13.7436 2.23089 -13.2814
ltibia 33.9779
lfoot -33.241 37.6301
ltoes -21.3564
1157
root -2.29969 13.903 25.0521 6.38593 12.8886 0.257628
lowerback 9.81466 -3.27741 -9.98745
upperback -1.27932 -5.43926 2.33051
thorax -5.7246 -2.31453 8.87768
lowerneck 9.22998 -17.135 -17.4645
upperneck 5.91297 -25.3718 16.7539
head 4.6818 -12.9748 6.54763
rclavicle -9.59136e-015 -2.62396e-014
rhumerus -34.6613 14.0546 -74.5722
rradius 41.1666
rwrist 1.89979
rhand -12.3923 -38.6723
rfingers 7.12502
rthumb 13.679 -68.2028
lclavicle -9.59136e-015 -2.62396e-014
lhumerus -27.674 -7.54126 87.7235
lradius 40.0041
lwrist -7.86377
lhand -25.5523 22.0669
lfingers 7.12502
lthumb 0.978166 52.0444
rfemur -62.7824 -12.1361 15.3336
rtibia 71.5766
rfoot -12.4894 14.5041
rtoes 0.417117
lfemur 13.7425 2.19136 -13.2803
ltibia 33.9818
lfoot -33.2096 37.6519
ltoes -21.3836
1158
root -2.30113 13.9041 25.0526 6.40428 12.8934 0.320781
lowerback 9.77338 -3.24774 -9.96556
upperback -1.32857 -5.39762 2.28902
thorax -5.76948 -2.29018 8.81487
lowerneck 9.76397 -17.121 -17.5929
upperneck 5.64634 -25.4226 16.9606
head 4.57014 -13.0315 6.67868
rclavicle 3.54582e-014 -8.94531e-015
rhumerus -34.7869 13.9142 -74.5189
rradius 41.2121
rwrist 1.96424
rhand -12.2054 -38.8167
rfingers 7.12502
rthumb 13.8591 -68.3349
lclavicle 3.54582e-014 -8.94531e-015
lhumerus -27.7966 -7.64716 87.798
lradius 39.957
lwrist -7.97334
lhand -25.582 21.9937
lfingers 7.12502
lthumb 0.949422 51.9713
rfemur -62.7991 -12.1496 15.2713
rtibia 71.5861
rfoot -12.4585 14.5287
rtoes 0.595296
lfemur 13.722 2.17889 -13.3442
ltibia 33.9824
lfoot -33.2108 37.6524
ltoes -21.3382
1159
root -2.30308 13.904 25.0513 6.39957 12.8797 0.294121
lowerback 9.82041 -3.29117 -9.9818
upperback -1.27745 -5.45749 2.3293
thorax -5.7224 -2.32397 8.87542
lowerneck 9.30596 -17.1427 -17.4745
upperneck 5.8467 -25.3919 16.822
head 4.6637 -12.9892 6.57553
rclavicle -4.66895e-014 4.90998e-014
rhumerus -34.5445 14.0598 -74.5199
rradius 41.1862
rwrist 1.898
rhand -12.6802 -38.4429
rfingers 7.12502
rthumb 13.4015 -67.9918
lclavicle -4.66895e-014 4.90998e-014
lhumerus -27.6444 -7.59481 87.7501
lradius 39.8496
lwrist -7.93794
lhand -25.5357 22.0047
lfingers 7.12502
lthumb 0.994205 51.9821
rfemur -62.8064 -12.1039 15.2979
rtibia 71.5861
rfoot -12.4357 14.5035
rtoes 0.601431
lfemur 13.7261 2.18022 -13.3159
ltibia 33.98
lfoot -33.2543 37.6302
ltoes -21.2877
